<?xml version="1.0" standalone="no"?>
<!DOCTYPE svg PUBLIC "-//W3C//DTD SVG 20010904//EN"
 "http://www.w3.org/TR/2001/REC-SVG-20010904/DTD/svg10.dtd">
<svg version="1.0" xmlns="http://www.w3.org/2000/svg"
 width="128.000000pt" height="128.000000pt" viewBox="0 0 128.000000 128.000000"
 preserveAspectRatio="xMidYMid meet">

<g transform="translate(0.000000,128.000000) scale(0.100000,-0.100000)"
fill="#000000" stroke="none">
<path d="M647 1218 c-31 -57 -75 -149 -195 -410 -29 -63 -46 -88 -59 -88 -13
0 -15 -2 -5 -9 10 -6 5 -26 -24 -87 -20 -43 -47 -102 -59 -131 -20 -45 -27
-52 -57 -56 -18 -2 6 -5 54 -5 54 -1 89 2 94 9 4 8 9 7 15 -2 6 -10 9 -3 9 19
0 18 9 50 20 72 19 37 21 38 52 29 18 -6 109 -33 203 -60 93 -27 173 -55 177
-62 5 -9 -9 -14 -55 -18 l-62 -6 66 -1 65 -2 46 -105 46 -106 -239 3 -239 3 2
-90 c0 -50 3 -75 5 -58 l4 33 387 2 c213 1 362 3 331 5 -55 4 -56 5 -77 48
l-21 44 77 4 77 3 -81 2 -81 2 -26 58 c-24 52 -25 58 -9 64 15 6 14 7 -3 7
-16 1 -38 38 -108 182 -48 99 -87 184 -87 187 0 8 -119 14 -131 6 -5 -3 3 -28
17 -56 14 -27 23 -52 21 -55 -5 -5 -268 76 -279 86 -8 7 111 271 122 271 3 0
17 -26 30 -57 12 -32 26 -61 29 -64 3 -4 137 -3 296 0 l290 8 -233 1 -233 2
-60 122 c-33 67 -57 128 -54 136 2 7 0 10 -5 7 -6 -4 -19 15 -31 42 l-20 48
20 43 c31 63 18 51 -22 -20z"/>
<path d="M757 1224 c-37 -74 -33 -83 4 -10 17 32 29 60 27 62 -2 2 -16 -21
-31 -52z"/>
<path d="M968 693 c23 -2 59 -2 80 0 20 2 1 4 -43 4 -44 0 -61 -2 -37 -4z"/>
<path d="M1177 683 c18 -2 50 -2 70 0 21 2 7 4 -32 4 -38 0 -55 -2 -38 -4z"/>
<path d="M511 458 c-1 -33 1 -36 22 -30 17 5 18 7 5 10 -9 2 -19 15 -21 30 -3
22 -4 20 -6 -10z"/>
<path d="M623 423 c15 -2 39 -2 55 0 15 2 2 4 -28 4 -30 0 -43 -2 -27 -4z"/>
<path d="M1128 413 c17 -2 47 -2 65 0 17 2 3 4 -33 4 -36 0 -50 -2 -32 -4z"/>
<path d="M118 333 l112 -4 -16 -31 c-46 -89 -102 -219 -90 -209 7 6 26 9 42 5
16 -3 77 -6 135 -7 l107 -2 -2 55 -1 55 -57 3 c-32 2 -58 5 -58 8 0 2 14 31
30 64 17 33 30 61 30 63 0 2 -78 4 -172 3 -111 0 -132 -1 -60 -3z"/>
<path d="M558 333 c29 -2 74 -2 100 0 26 2 2 3 -53 3 -55 0 -76 -1 -47 -3z"/>
<path d="M398 290 c2 -22 6 -40 8 -40 2 0 4 18 4 40 0 22 -3 40 -8 40 -4 0 -6
-18 -4 -40z"/>
<path d="M863 323 c9 -2 25 -2 35 0 9 3 1 5 -18 5 -19 0 -27 -2 -17 -5z"/>
<path d="M392 25 c0 -17 2 -22 5 -12 2 9 2 23 0 30 -3 6 -5 -1 -5 -18z"/>
</g>
</svg>
